<?xml version="1.0" standalone="no"?>
<!DOCTYPE svg PUBLIC "-//W3C//DTD SVG 20010904//EN"
 "http://www.w3.org/TR/2001/REC-SVG-20010904/DTD/svg10.dtd">
<svg version="1.0" xmlns="http://www.w3.org/2000/svg"
 width="980.000000pt" height="980.000000pt" viewBox="0 0 980.000000 980.000000"
 preserveAspectRatio="xMidYMid meet">
<metadata>
Created by potrace 1.11, written by Peter Selinger 2001-2013
</metadata>
<g transform="translate(0.000000,980.000000) scale(0.100000,-0.100000)"
fill="#000000" stroke="none">
<path d="M0 4900 l0 -4900 4900 0 4900 0 0 4900 0 4900 -4900 0 -4900 0 0
-4900z m5090 3217 c0 -5 18 -6 40 -2 28 5 40 3 40 -5 0 -8 10 -9 30 -5 20 4
30 3 30 -5 0 -8 10 -9 30 -5 19 4 30 3 30 -4 0 -7 10 -9 26 -5 20 5 25 4 20
-5 -6 -9 0 -10 20 -5 20 5 25 4 19 -6 -5 -9 -2 -10 14 -5 13 4 21 2 21 -5 0
-7 8 -9 21 -5 16 5 19 4 14 -5 -5 -9 -2 -10 14 -5 13 4 21 2 21 -5 0 -7 7 -10
15 -6 8 3 15 1 15 -5 0 -6 7 -9 15 -5 8 3 15 1 15 -4 0 -5 7 -6 17 -3 11 5 14
3 8 -6 -6 -10 -2 -11 15 -6 17 5 21 4 15 -6 -6 -9 -3 -11 8 -6 10 3 17 2 17
-3 0 -5 7 -6 17 -3 10 4 14 2 10 -4 -8 -12 20 -26 34 -17 5 3 9 0 9 -6 0 -6 4
-9 10 -5 11 7 130 -52 130 -65 0 -5 10 -14 21 -21 16 -8 20 -8 14 1 -6 9 -2 9
14 1 11 -7 21 -14 21 -17 0 -3 -4 -2 -10 1 -5 3 -10 4 -10 1 0 -3 10 -10 21
-17 17 -9 20 -8 14 3 -4 7 3 2 15 -12 12 -14 18 -18 14 -10 -12 21 43 -14 76
-49 14 -15 21 -20 16 -11 -5 8 7 -3 26 -24 19 -22 39 -36 45 -33 5 4 21 -6 34
-21 l24 -27 -25 20 c-21 16 -21 15 3 -8 15 -15 31 -25 36 -23 4 3 43 -32 87
-77 l79 -82 -80 75 c-45 41 -29 23 35 -40 105 -105 186 -200 149 -175 -8 6 -3
-1 12 -15 35 -33 70 -88 49 -76 -8 4 -4 -2 10 -14 14 -12 19 -19 12 -15 -11 6
-12 3 -3 -14 7 -11 14 -21 17 -21 3 0 2 5 -1 10 -3 6 -4 10 -1 10 3 0 10 -10
17 -21 8 -16 8 -20 -1 -14 -9 6 -9 2 -1 -14 7 -11 16 -21 22 -21 6 0 7 -4 4
-10 -3 -5 -2 -10 4 -10 14 0 53 -78 46 -90 -3 -6 -1 -10 5 -10 6 0 9 -4 6 -9
-8 -12 4 -42 14 -36 11 7 20 -22 13 -42 -4 -10 -2 -14 4 -10 14 9 24 -18 16
-40 -5 -11 -3 -14 6 -8 10 6 11 2 6 -15 -5 -16 -4 -20 5 -15 9 5 10 1 5 -15
-5 -16 -4 -20 5 -15 9 5 10 1 5 -15 -5 -16 -4 -20 5 -15 9 5 10 2 5 -14 -4
-13 -2 -21 5 -21 7 0 9 -8 5 -21 -5 -15 -4 -19 4 -14 8 5 10 -1 5 -21 -5 -21
-4 -25 6 -19 10 6 11 2 6 -19 -5 -20 -3 -26 5 -21 8 6 9 -2 4 -25 -5 -25 -4
-31 5 -25 10 6 11 -1 6 -30 -5 -27 -4 -35 4 -30 9 6 10 -3 5 -34 -5 -28 -3
-41 5 -41 8 0 9 -18 4 -61 -5 -46 -4 -60 5 -55 8 5 11 -22 11 -98 0 -72 -4
-106 -11 -106 -8 0 -10 -18 -5 -61 5 -44 4 -59 -4 -54 -8 5 -10 -6 -4 -40 5
-37 4 -46 -6 -40 -9 6 -10 0 -5 -25 5 -25 4 -31 -5 -25 -10 6 -12 0 -7 -24 5
-23 3 -30 -5 -25 -7 5 -9 -1 -4 -20 4 -15 2 -26 -4 -26 -6 0 -8 -11 -4 -26 5
-20 4 -25 -6 -19 -9 5 -10 2 -5 -15 5 -16 4 -20 -4 -15 -8 5 -10 -1 -5 -21 5
-20 4 -25 -6 -19 -9 5 -10 2 -5 -15 5 -16 4 -20 -5 -15 -9 5 -10 1 -5 -15 5
-17 4 -21 -6 -15 -9 6 -11 3 -6 -8 8 -22 -2 -49 -15 -41 -6 4 -7 -2 -3 -16 5
-15 4 -20 -4 -16 -6 4 -12 1 -12 -6 -1 -7 -3 -20 -4 -28 -1 -8 -3 -21 -4 -28
0 -7 -5 -11 -10 -8 -11 7 -23 -22 -14 -36 4 -7 1 -8 -7 -3 -10 6 -12 4 -7 -9
5 -11 3 -15 -5 -10 -8 5 -9 2 -5 -10 5 -11 3 -15 -5 -10 -8 5 -9 2 -5 -10 4
-9 3 -15 -2 -12 -4 3 -13 -6 -20 -20 -8 -18 -8 -23 0 -18 8 4 8 0 0 -15 -7
-11 -16 -21 -21 -21 -5 0 -14 -10 -21 -21 -8 -16 -8 -20 1 -14 9 6 9 3 2 -11
-12 -22 -47 -65 -37 -46 12 23 -3 12 -21 -15 -17 -27 -17 -28 2 -13 18 14 18
14 5 -5 -8 -11 -26 -31 -41 -45 -14 -14 -19 -21 -10 -16 8 5 -1 -6 -21 -25
-19 -19 -28 -29 -19 -24 8 6 -8 -12 -36 -40 -27 -27 -35 -36 -15 -20 19 17
-22 -26 -90 -95 -138 -139 -208 -199 -226 -193 -6 2 -17 -5 -25 -15 -7 -11
-17 -20 -23 -20 -5 0 -11 -6 -13 -14 -2 -9 0 -8 7 2 10 14 16 7 12 -14 -1 -5
5 -6 14 -3 8 4 15 2 15 -4 0 -6 5 -7 10 -4 6 3 10 1 10 -5 0 -6 4 -9 9 -5 12
7 62 -15 56 -25 -3 -5 2 -11 11 -14 9 -3 12 -2 9 5 -4 6 16 -1 44 -15 28 -15
51 -31 51 -36 0 -5 14 -17 31 -26 18 -9 28 -11 24 -4 -6 9 -2 9 14 1 11 -7 21
-14 21 -17 0 -3 -4 -2 -10 1 -5 3 -10 4 -10 1 0 -3 10 -10 21 -17 17 -9 20 -8
14 3 -4 7 2 2 13 -11 10 -13 24 -21 30 -17 6 3 14 1 18 -5 5 -8 3 -9 -6 -4 -9
6 -11 4 -6 -4 5 -7 14 -10 22 -7 7 3 16 0 20 -6 5 -7 2 -8 -6 -3 -9 6 -11 4
-6 -4 5 -7 14 -10 22 -7 7 3 16 0 20 -6 4 -7 3 -8 -4 -4 -25 15 -10 -3 16 -20
26 -17 27 -17 12 1 -12 16 -9 15 18 -4 17 -12 32 -25 32 -28 0 -3 -7 0 -15 7
-8 7 -15 10 -15 7 0 -3 15 -16 33 -28 28 -20 30 -21 18 -4 -8 11 1 4 20 -16
19 -19 27 -26 19 -15 l-15 21 25 -20 c14 -10 50 -44 80 -75 30 -31 44 -42 30
-25 -14 17 12 -9 58 -57 46 -48 118 -120 160 -160 43 -40 66 -64 52 -53 -14
11 -3 -2 25 -30 28 -27 41 -43 30 -35 -12 8 -3 -3 19 -24 23 -22 34 -35 26
-30 -9 5 -4 -2 10 -16 14 -14 21 -23 15 -20 -6 3 1 -6 15 -20 14 -14 19 -20
10 -15 -13 9 -13 8 -1 -10 8 -11 26 -31 40 -44 14 -13 19 -20 11 -16 -8 4 -4
-3 10 -15 14 -12 18 -19 10 -15 -8 4 -4 -3 10 -15 14 -12 19 -19 12 -15 -11 6
-12 3 -3 -14 7 -11 14 -21 17 -21 3 0 2 5 -1 10 -3 6 -4 10 -1 10 3 0 10 -10
17 -21 9 -17 8 -20 -3 -14 -7 5 -1 -3 15 -18 27 -26 37 -44 16 -31 -8 4 -8 0
0 -15 7 -11 16 -21 21 -21 5 0 17 -14 26 -31 8 -17 11 -28 5 -24 -8 4 -8 -2 0
-19 7 -14 16 -23 20 -20 5 3 6 -3 2 -12 -4 -12 -3 -15 5 -10 8 5 10 1 5 -10
-5 -13 -3 -15 7 -9 8 5 11 4 7 -3 -9 -13 2 -44 13 -37 9 6 32 -44 25 -55 -7
-12 5 -41 15 -35 11 7 20 -22 13 -42 -4 -10 -2 -14 4 -10 14 9 24 -18 16 -40
-5 -11 -3 -14 6 -8 10 6 11 2 6 -15 -5 -17 -4 -21 6 -15 9 6 11 3 6 -8 -3 -10
-2 -17 3 -17 5 0 6 -7 3 -17 -5 -11 -3 -14 6 -8 10 6 11 2 6 -15 -5 -16 -4
-20 5 -15 9 5 10 2 5 -14 -4 -13 -2 -21 5 -21 7 0 9 -8 5 -21 -5 -16 -4 -19 5
-14 9 5 10 1 5 -15 -5 -17 -4 -20 5 -15 10 6 11 1 6 -19 -5 -19 -3 -26 4 -21
7 5 9 -2 4 -21 -5 -19 -4 -25 5 -20 9 6 10 0 5 -20 -5 -19 -4 -25 5 -20 9 6
10 0 5 -20 -5 -20 -4 -25 6 -19 9 6 10 0 5 -25 -5 -24 -4 -31 5 -25 9 6 10 -1
5 -25 -5 -25 -4 -31 5 -25 10 6 11 -1 6 -30 -5 -27 -4 -35 4 -30 9 6 10 -3 5
-34 -5 -28 -3 -41 5 -41 8 0 9 -14 4 -45 -4 -31 -3 -45 5 -45 8 0 10 -23 5
-82 -5 -60 -4 -79 4 -74 9 5 12 -9 12 -48 l0 -56 -277 0 -278 0 3 76 c3 58 1
74 -9 69 -9 -6 -10 6 -5 54 5 48 4 61 -5 56 -9 -6 -10 4 -5 40 6 34 4 45 -4
40 -8 -5 -9 4 -4 30 5 29 4 36 -6 30 -9 -6 -10 0 -5 25 5 25 4 31 -5 25 -10
-6 -11 -1 -6 19 4 15 2 26 -4 26 -6 0 -8 11 -4 26 5 20 4 25 -6 19 -9 -5 -10
-2 -5 14 4 13 2 21 -5 21 -7 0 -9 8 -5 21 5 16 4 19 -5 14 -9 -5 -10 -2 -5 14
4 13 2 21 -5 21 -7 0 -9 8 -5 21 5 16 4 19 -6 14 -9 -6 -11 -3 -6 8 3 10 2 17
-3 17 -5 0 -7 7 -4 15 4 8 1 15 -5 15 -6 0 -8 7 -4 17 5 11 3 14 -6 8 -10 -6
-11 -2 -6 15 4 14 3 20 -3 16 -13 -8 -23 19 -15 41 4 10 2 14 -4 10 -12 -8
-26 20 -17 34 3 5 0 9 -6 9 -6 0 -9 4 -5 9 7 12 -15 62 -25 56 -5 -3 -11 2
-14 11 -3 8 -2 12 4 9 6 -4 5 5 -1 19 -7 14 -16 23 -20 20 -5 -3 -6 1 -3 9 3
9 -8 28 -25 46 -31 32 -40 48 -20 35 8 -4 8 0 0 15 -7 11 -14 21 -17 21 -3 0
-2 -5 1 -10 3 -6 4 -10 1 -10 -3 0 -10 10 -17 21 -9 17 -8 20 3 14 7 -4 2 3
-12 15 -14 12 -18 19 -10 15 8 -4 4 3 -10 15 -14 12 -19 19 -12 15 11 -6 12
-3 3 13 -6 12 -17 24 -24 28 -8 5 -7 2 2 -9 7 -9 11 -17 8 -17 -3 0 -16 15
-28 33 -20 28 -21 30 -4 17 19 -14 19 -14 6 5 -8 11 -31 36 -51 55 -20 19 -29
31 -20 25 8 -5 -5 10 -30 35 -26 25 -35 36 -20 25 14 -11 -8 12 -48 50 -41 39
-104 102 -141 141 -36 38 -52 54 -36 35 25 -28 20 -26 -27 14 -32 27 -58 51
-58 53 0 3 9 -3 20 -13 11 -10 20 -16 20 -12 0 3 -19 20 -42 38 -35 27 -39 28
-23 9 l20 -25 -25 20 c-14 10 -36 31 -50 45 -14 14 -20 19 -15 11 6 -8 -9 -2
-32 14 -24 15 -43 30 -43 32 0 2 5 1 10 -2 6 -3 10 -4 10 -1 0 3 -10 10 -21
17 -17 9 -20 8 -14 -3 4 -7 -3 -2 -15 12 -12 14 -19 19 -15 12 6 -11 3 -12
-14 -3 -11 7 -21 16 -21 21 0 5 -10 14 -21 21 -16 8 -20 8 -14 -1 4 -6 -20 3
-54 20 -34 16 -61 35 -61 41 0 5 -4 8 -9 5 -12 -8 -42 4 -36 14 6 10 -24 22
-36 14 -5 -3 -9 -1 -9 5 0 6 -7 7 -17 4 -12 -5 -14 -3 -8 7 6 10 4 12 -8 7
-10 -3 -17 -2 -17 3 0 5 -7 6 -17 3 -12 -5 -14 -3 -8 7 6 10 4 12 -8 7 -10 -3
-17 -2 -17 3 0 5 -7 7 -15 4 -8 -4 -15 -1 -15 5 0 6 -7 8 -17 4 -11 -5 -14 -3
-8 6 6 10 2 11 -15 6 -16 -5 -20 -4 -15 5 5 9 2 10 -14 5 -13 -4 -21 -2 -21 5
0 7 -8 9 -21 5 -16 -5 -19 -4 -14 5 5 9 2 10 -14 5 -13 -4 -21 -2 -21 5 0 7
-8 9 -20 5 -12 -4 -20 -2 -20 5 0 6 -10 8 -26 4 -20 -5 -25 -4 -20 5 6 9 0 10
-20 5 -20 -5 -25 -4 -19 6 6 9 0 10 -24 5 -21 -4 -31 -3 -31 5 0 8 -10 9 -31
5 -24 -5 -30 -4 -24 5 6 10 -3 11 -39 6 -30 -5 -46 -4 -46 3 0 8 -19 9 -55 5
-38 -5 -55 -3 -55 5 0 8 -42 11 -140 11 -97 0 -140 -3 -140 -11 0 -8 -18 -10
-61 -5 -45 5 -59 4 -54 -4 6 -9 -3 -10 -34 -5 -29 5 -41 3 -41 -5 0 -8 -10 -9
-30 -5 -20 4 -30 3 -30 -5 0 -8 -10 -9 -31 -5 -24 5 -30 4 -24 -5 6 -10 1 -11
-19 -6 -15 4 -26 2 -26 -4 0 -6 -11 -8 -26 -4 -20 5 -25 4 -20 -5 6 -9 0 -10
-20 -5 -20 5 -25 4 -19 -6 5 -9 2 -10 -15 -5 -16 5 -20 4 -15 -4 5 -8 -1 -10
-21 -5 -20 5 -25 4 -19 -6 5 -9 2 -10 -15 -5 -16 5 -20 4 -15 -5 5 -9 1 -10
-15 -5 -16 5 -20 4 -15 -5 5 -9 1 -10 -15 -5 -17 5 -21 4 -15 -6 6 -9 3 -11
-8 -6 -22 8 -49 -2 -41 -15 4 -6 -2 -7 -16 -3 -15 5 -20 4 -16 -4 4 -6 1 -12
-6 -12 -7 -1 -20 -3 -28 -4 -8 -1 -21 -3 -28 -4 -7 0 -11 -5 -8 -10 7 -11 -22
-23 -35 -15 -5 3 -9 1 -9 -5 0 -6 -7 -8 -15 -5 -8 4 -17 -1 -21 -10 -3 -9 -10
-13 -15 -10 -5 3 -9 0 -9 -6 0 -6 -4 -8 -10 -5 -5 3 -10 1 -10 -5 0 -6 -4 -8
-10 -5 -5 3 -10 2 -10 -4 0 -6 -10 -15 -21 -22 -16 -8 -20 -8 -14 1 4 7 -6 5
-24 -4 -17 -9 -31 -19 -31 -22 0 -3 5 -2 10 1 6 3 10 4 10 1 0 -3 -10 -10 -21
-17 -16 -8 -20 -8 -14 1 6 9 3 9 -11 2 -22 -12 -65 -47 -46 -37 21 11 13 -4
-9 -16 -17 -9 -20 -8 -14 3 4 7 -3 1 -16 -13 -13 -14 -33 -32 -44 -40 -19 -13
-19 -13 -5 6 14 19 14 19 -5 6 -11 -8 -36 -31 -55 -51 -19 -20 -28 -27 -20
-15 l15 20 -25 -20 c-14 -11 -79 -74 -145 -141 -90 -90 -97 -96 -30 -25 l90
96 -98 -95 c-53 -52 -95 -100 -93 -107 3 -7 -16 -31 -42 -55 -26 -24 -41 -38
-32 -33 9 6 0 -5 -19 -24 -20 -19 -29 -30 -21 -25 9 5 4 -2 -10 -16 -14 -14
-19 -20 -11 -15 8 6 -7 -23 -34 -62 -26 -40 -50 -73 -52 -73 -2 0 -1 5 2 10 3
6 4 10 1 10 -3 0 -10 -10 -17 -21 -8 -16 -8 -20 1 -14 9 6 9 2 1 -14 -7 -11
-16 -21 -21 -21 -5 0 -14 -10 -21 -21 -8 -16 -8 -20 1 -14 6 4 0 -16 -14 -44
-15 -28 -31 -51 -37 -51 -5 0 -8 -4 -4 -9 7 -13 -16 -62 -26 -55 -5 3 -10 -1
-10 -8 -1 -7 -3 -20 -4 -28 -1 -8 -3 -21 -4 -28 0 -7 -6 -10 -13 -6 -8 5 -9 2
-5 -9 8 -22 -2 -49 -15 -41 -6 4 -7 -2 -3 -16 5 -16 4 -20 -5 -15 -9 5 -10 1
-5 -15 5 -16 4 -20 -5 -15 -9 5 -10 1 -5 -15 5 -16 4 -20 -5 -15 -9 5 -10 1
-5 -15 5 -16 4 -20 -5 -15 -9 5 -10 1 -5 -15 5 -16 4 -20 -4 -15 -8 5 -10 -1
-5 -21 5 -20 4 -25 -6 -19 -9 5 -10 2 -5 -14 4 -13 2 -21 -5 -21 -6 0 -8 -10
-4 -26 5 -20 4 -25 -5 -20 -9 6 -10 0 -5 -20 5 -20 4 -25 -6 -19 -9 6 -10 0
-5 -25 5 -24 4 -31 -5 -25 -8 5 -9 -3 -4 -30 5 -29 4 -36 -6 -30 -9 6 -11 -2
-5 -35 5 -32 4 -41 -5 -35 -9 5 -10 -7 -5 -50 6 -45 5 -56 -5 -50 -10 6 -11
-12 -5 -84 l7 -91 -276 0 -275 0 2 135 c1 74 6 135 11 135 4 0 5 20 2 45 -5
30 -4 45 4 45 7 0 9 12 4 36 -5 29 -4 35 6 29 10 -6 11 0 6 30 -5 27 -4 35 4
30 9 -6 10 1 5 24 -4 20 -3 31 4 31 7 0 9 10 5 26 -5 21 -4 25 6 19 10 -6 11
-2 6 19 -4 16 -2 26 4 26 7 0 9 8 5 20 -4 12 -2 20 5 20 7 0 9 8 5 20 -4 12
-2 20 5 20 7 0 9 8 5 21 -5 16 -4 19 5 14 9 -5 10 -2 5 14 -4 13 -2 21 5 21 7
0 9 8 5 21 -5 16 -4 19 5 14 9 -5 10 -1 5 15 -5 16 -4 20 5 15 9 -5 10 -1 5
15 -5 16 -4 20 5 15 9 -5 10 -1 5 15 -5 17 -4 21 6 15 9 -6 11 -3 6 8 -3 10
-2 17 3 17 5 0 6 7 3 17 -5 11 -3 14 6 8 10 -6 11 -2 6 15 -5 15 -4 20 4 16 6
-4 12 -1 12 6 1 7 3 20 4 28 1 8 3 21 4 28 0 7 6 10 13 6 8 -5 9 -2 5 9 -3 10
-2 17 4 17 6 0 8 4 5 9 -8 12 4 42 14 36 11 -7 22 24 13 37 -4 7 -1 8 7 3 10
-6 12 -4 7 9 -5 11 -3 15 5 10 8 -5 9 -2 5 10 -5 11 -3 15 5 10 8 -5 9 -2 5
10 -5 11 -3 15 5 10 8 -5 9 -2 5 10 -4 9 -3 15 2 12 4 -3 13 6 20 20 8 17 8
23 0 19 -6 -4 -3 7 5 24 9 17 21 31 26 31 5 0 14 10 21 21 9 17 8 20 -3 14 -7
-5 -1 3 15 18 28 27 36 43 15 32 -7 -4 -2 3 12 15 14 12 18 18 10 14 -22 -12
15 44 49 75 14 13 19 20 11 16 -8 -4 -4 3 10 16 14 13 19 20 11 14 -30 -20 52
84 90 115 22 17 38 37 37 43 -1 7 74 88 167 181 94 93 159 155 145 139 -14
-16 -2 -6 25 22 28 28 61 60 75 71 25 19 25 19 10 -2 -8 -11 0 -4 19 15 19 20
30 29 25 21 -5 -9 2 -4 16 10 14 15 34 33 45 41 19 13 19 13 5 -5 -15 -19 -14
-19 13 -2 25 17 40 35 15 20 -7 -4 -8 -3 -4 4 4 6 12 9 19 7 7 -3 23 5 37 16
14 11 19 18 13 14 -7 -3 -13 -4 -13 -1 0 3 10 10 21 17 17 9 20 8 14 -3 -4 -7
3 -2 15 12 12 14 19 19 15 13 -11 -22 5 -14 32 15 15 15 23 21 19 14 -6 -10 0
-9 23 2 17 9 31 21 31 26 0 5 18 19 41 31 23 11 38 16 35 10 -4 -7 -1 -8 8 -5
9 3 14 9 11 13 -6 10 84 53 96 46 5 -4 9 -2 9 4 0 6 7 8 15 5 10 -4 13 0 10
18 -4 22 -4 22 10 4 8 -11 15 -15 15 -9 0 7 -15 22 -32 34 -29 20 -31 21 -18
4 14 -19 14 -19 -5 -6 -11 8 -36 31 -55 51 -19 20 -28 27 -20 15 7 -11 -13 7
-45 41 -33 33 -44 42 -25 20 19 -22 -19 13 -85 79 -66 65 -119 124 -117 130 1
6 -8 20 -20 31 -23 19 -23 19 -8 -2 8 -11 1 -4 -16 15 -18 19 -30 40 -27 47 2
7 -7 20 -22 30 -28 18 -58 62 -33 49 7 -4 2 3 -12 15 -14 12 -18 19 -10 15 8
-4 4 3 -10 15 -14 12 -19 19 -12 15 10 -5 9 1 -2 24 -9 17 -19 31 -22 31 -3 0
-2 -4 1 -10 3 -5 4 -10 1 -10 -3 0 -10 10 -17 21 -8 15 -8 19 0 15 8 -5 8 0 0
18 -7 14 -16 23 -20 20 -5 -3 -6 3 -2 12 4 12 3 15 -5 10 -8 -5 -10 -1 -5 10
5 13 3 15 -7 9 -8 -5 -11 -4 -7 3 9 13 -2 44 -13 37 -10 -6 -22 24 -14 36 3 5
1 9 -5 9 -6 0 -7 7 -4 17 5 12 3 14 -7 8 -10 -6 -12 -4 -7 8 3 10 2 17 -3 17
-5 0 -6 7 -3 17 5 11 3 14 -6 8 -10 -6 -11 -2 -6 15 5 17 4 21 -6 15 -9 -6
-11 -3 -6 8 4 10 2 17 -4 17 -6 0 -9 7 -5 15 3 8 1 15 -3 15 -5 0 -7 10 -3 22
4 15 2 19 -7 13 -10 -6 -11 -2 -6 15 5 16 4 20 -4 15 -8 -5 -10 1 -5 21 5 19
4 25 -5 20 -9 -6 -10 0 -5 20 5 19 4 25 -5 20 -9 -6 -10 0 -5 20 5 20 4 25 -6
19 -9 -6 -10 0 -5 25 5 25 4 31 -5 25 -10 -6 -11 1 -6 30 5 27 4 35 -4 30 -9
-6 -10 3 -5 34 5 29 3 41 -5 41 -8 0 -10 18 -5 65 5 45 4 65 -4 65 -7 0 -11
28 -11 80 0 53 4 80 11 80 8 0 10 21 5 71 -6 53 -4 69 4 64 9 -6 10 3 5 34 -5
29 -3 41 5 41 8 0 9 10 5 31 -5 23 -4 30 5 24 9 -6 10 1 5 25 -5 24 -4 31 5
25 9 -6 10 1 5 25 -5 23 -4 31 4 25 8 -5 10 1 5 21 -5 20 -4 25 6 19 9 -5 10
-2 5 15 -5 17 -4 20 5 15 10 -6 11 -1 6 19 -5 20 -3 26 5 21 8 -5 9 -1 4 15
-5 16 -4 20 5 15 9 -5 10 -1 5 15 -5 16 -4 20 5 15 9 -5 10 -1 5 15 -5 17 -4
21 6 15 9 -6 11 -3 6 8 -3 10 -2 17 3 17 5 0 6 7 3 17 -5 12 -3 14 7 8 10 -6
12 -4 7 8 -3 10 -2 17 3 17 5 0 6 7 3 17 -4 10 -2 14 4 10 12 -7 36 40 28 54
-4 5 -2 9 4 9 6 0 8 7 5 15 -4 8 1 17 10 21 9 3 13 10 10 15 -3 5 0 9 6 9 6 0
8 5 5 10 -3 6 -2 10 4 10 6 0 15 10 22 21 8 16 8 20 -1 14 -9 -6 -9 -2 -1 14
7 11 16 21 21 21 5 0 14 10 21 21 9 17 8 20 -3 14 -7 -4 -2 3 12 15 14 12 18
19 10 15 -8 -4 -4 3 10 15 14 12 18 19 10 15 -8 -4 -3 3 11 16 14 13 32 33 40
44 13 19 13 19 -6 6 -11 -8 -4 1 16 20 19 19 28 30 19 24 -9 -5 3 8 25 30 23
22 30 31 17 20 -14 -11 38 43 115 120 77 77 150 149 164 160 l24 20 -15 -21
c-8 -11 0 -4 19 15 19 20 28 27 20 17 -14 -19 -13 -19 14 -1 15 10 32 26 38
36 5 10 19 24 30 30 17 9 20 8 14 -3 -4 -7 3 -2 15 12 12 14 19 19 15 12 -6
-11 -3 -12 14 -3 11 7 21 14 21 17 0 3 -4 2 -10 -1 -5 -3 -10 -4 -10 -1 0 3
10 10 21 17 16 8 20 8 14 -1 -6 -9 -2 -9 14 -1 11 7 21 16 21 21 0 13 99 62
110 55 6 -4 10 -1 10 5 0 6 4 9 9 5 14 -8 61 16 54 28 -4 6 0 8 10 4 22 -8 49
2 41 15 -4 6 2 7 16 3 17 -5 21 -4 15 6 -6 9 -3 11 8 6 10 -4 17 -2 17 4 0 6
7 9 15 5 8 -3 15 -1 15 5 0 6 7 9 15 5 8 -3 15 -1 15 5 0 6 9 8 21 4 16 -5 19
-4 14 5 -5 9 -2 10 14 5 13 -4 21 -2 21 5 0 7 8 9 21 5 16 -5 19 -4 14 5 -6
10 -1 11 19 6 15 -4 26 -2 26 4 0 6 11 8 26 4 20 -5 25 -4 19 6 -6 9 0 10 24
5 21 -4 31 -3 31 5 0 8 10 9 30 5 20 -4 30 -3 30 5 0 8 12 10 40 5 22 -4 40
-3 40 2 0 4 86 8 190 8 105 0 190 -4 190 -8z m1001 -394 c13 -16 12 -17 -3 -4
-10 7 -18 15 -18 17 0 8 8 3 21 -13z m-2471 -76 c0 -1 -37 -38 -82 -82 l-83
-80 80 83 c74 76 85 87 85 79z m2680 -2720 c0 -2 -17 -19 -37 -38 l-38 -34 34
38 c33 34 41 42 41 34z m-2755 -37 c10 -11 16 -20 13 -20 -3 0 -13 9 -23 20
-10 11 -16 20 -13 20 3 0 13 -9 23 -20z m-495 -723 c0 -1 -44 -45 -97 -97
l-98 -95 95 98 c88 90 100 102 100 94z m3800 -92 c52 -52 92 -95 90 -95 -3 0
-48 43 -100 95 -52 52 -92 95 -90 95 3 0 48 -43 100 -95z m-3250 -169 c0 -2
-8 -10 -17 -17 -16 -13 -17 -12 -4 4 13 16 21 21 21 13z m-810 -19 c0 -2 -10
-12 -22 -23 l-23 -19 19 23 c18 21 26 27 26 19z m720 -50 c0 -2 -12 -14 -27
-28 l-28 -24 24 28 c23 25 31 32 31 24z m3141 -374 c13 -16 12 -17 -3 -4 -10
7 -18 15 -18 17 0 8 8 3 21 -13z m-1101 -1993 l0 -340 -35 0 -35 0 0 290 c0
160 -2 290 -4 290 -3 0 -26 -13 -53 -30 -26 -16 -60 -32 -75 -36 -26 -6 -28
-4 -28 28 0 31 4 35 48 50 26 10 72 33 102 52 30 19 61 34 68 35 9 1 12 -73
12 -339z m519 311 c57 -28 76 -63 76 -134 0 -75 -24 -114 -87 -146 -35 -17
-38 -21 -22 -27 58 -19 77 -30 105 -62 29 -33 31 -39 27 -102 -4 -82 -33 -126
-105 -161 -38 -18 -64 -23 -128 -22 -106 0 -145 19 -145 68 l0 35 43 -22 c54
-28 156 -31 204 -5 39 21 63 63 63 112 0 82 -54 124 -172 133 -67 5 -68 5 -68
33 0 28 1 29 55 29 100 0 154 38 162 112 5 54 -12 88 -57 111 -41 21 -120 18
-169 -7 l-31 -17 0 30 c0 34 18 47 83 61 54 11 123 3 166 -19z m497 18 c91
-23 150 -117 125 -201 -7 -21 -28 -54 -49 -74 -24 -24 -33 -38 -24 -41 25 -9
73 -56 89 -86 23 -46 20 -126 -6 -173 -66 -118 -262 -135 -358 -32 -71 76 -53
215 37 274 l39 26 -30 25 c-40 34 -59 74 -59 123 0 80 50 141 134 160 45 11
52 11 102 -1z m517 0 c56 -15 103 -62 128 -127 32 -82 33 -247 1 -350 -39
-126 -123 -195 -237 -196 -95 -1 -115 8 -115 49 l0 34 41 -14 c23 -8 56 -15
73 -15 37 0 105 30 128 56 30 34 56 106 64 174 l7 65 -34 -37 c-115 -122 -319
-30 -319 144 0 129 83 218 210 227 8 0 32 -4 53 -10z m-4440 -190 c21 -5 53
-24 72 -41 l35 -30 0 36 c0 35 1 36 36 36 l36 0 -4 -267 c-4 -291 -8 -316 -65
-375 -55 -58 -189 -80 -295 -49 -45 13 -48 15 -48 48 0 30 3 34 18 28 33 -15
117 -35 142 -35 111 0 180 81 180 209 0 48 -5 50 -32 16 -30 -38 -77 -58 -138
-59 -75 -1 -126 27 -165 89 -28 45 -30 55 -30 144 1 79 5 103 22 137 26 49 83
102 121 110 15 3 32 7 37 9 19 6 40 5 78 -6z m619 -15 c57 -29 97 -113 98
-201 l0 -33 -171 0 -172 0 6 -42 c10 -72 66 -127 138 -135 39 -4 76 4 142 32
14 6 17 2 17 -22 0 -42 -56 -66 -153 -66 -82 0 -119 14 -164 66 -57 65 -69
216 -25 303 25 49 82 101 120 110 15 3 32 7 37 9 18 7 99 -7 127 -21z m442 20
c10 -4 16 -18 16 -38 0 -31 -1 -31 -40 -28 -52 5 -86 -17 -111 -71 -16 -35
-19 -67 -19 -194 l0 -153 -35 0 -35 0 0 240 0 240 35 0 35 0 0 -52 0 -53 23
39 c12 21 38 47 57 57 37 20 49 22 74 13z m330 0 c10 -4 16 -18 16 -38 0 -31
-1 -31 -40 -28 -52 5 -86 -17 -111 -71 -16 -35 -19 -67 -19 -194 l0 -153 -35
0 -35 0 0 240 0 240 35 0 35 0 0 -52 0 -53 23 39 c12 21 38 47 57 57 37 20 49
22 74 13z m180 -195 c36 -105 66 -197 66 -205 0 -8 5 -14 10 -14 6 0 10 6 10
13 0 6 31 98 69 202 l69 190 37 3 c28 3 36 0 32 -10 -3 -7 -55 -141 -117 -298
-61 -157 -121 -300 -131 -317 -49 -78 -169 -112 -169 -47 0 20 5 24 29 24 15
0 41 10 56 22 28 22 75 114 75 147 0 11 -36 113 -81 228 -45 114 -85 218 -90
231 -8 20 -6 22 30 22 l39 0 66 -191z m416 109 c13 -46 38 -139 56 -208 18
-69 35 -118 37 -110 3 8 31 102 62 208 l58 192 31 0 32 0 55 -206 56 -206 54
203 55 204 32 3 c18 2 32 -1 32 -6 0 -5 -31 -112 -69 -238 l-68 -229 -36 -3
-36 -3 -20 68 c-63 215 -81 283 -81 302 0 12 -4 21 -10 21 -5 0 -10 -6 -10
-14 0 -12 -46 -169 -101 -343 -9 -29 -15 -33 -44 -33 l-34 0 -30 98 c-16 53
-48 157 -70 231 -23 73 -41 137 -41 142 0 5 15 9 34 9 l34 0 22 -82z"/>
<path d="M3659 7673 l-24 -28 28 24 c25 23 32 31 24 31 -2 0 -14 -12 -28 -27z"/>
<path d="M4760 7577 c0 -5 -19 -6 -41 -2 -31 5 -40 4 -34 -5 6 -9 0 -10 -24
-5 -21 4 -31 3 -31 -5 0 -8 -9 -10 -26 -6 -18 5 -24 3 -18 -5 5 -9 -1 -10 -20
-5 -19 5 -26 3 -21 -4 5 -7 -2 -9 -21 -4 -20 5 -25 4 -19 -6 5 -9 2 -10 -15
-5 -16 5 -20 4 -15 -5 5 -9 1 -10 -15 -5 -17 5 -21 4 -15 -6 6 -9 3 -11 -8 -6
-22 8 -49 -2 -40 -16 4 -6 0 -8 -10 -4 -20 7 -49 -2 -42 -13 7 -11 -24 -22
-37 -13 -7 4 -8 1 -3 -7 6 -10 4 -12 -9 -7 -11 5 -15 3 -10 -5 5 -8 2 -9 -10
-5 -9 4 -15 3 -12 -2 3 -4 -6 -13 -20 -20 -15 -6 -23 -7 -19 -1 12 20 -6 10
-32 -17 -15 -16 -22 -21 -18 -13 13 22 -43 -15 -75 -49 -14 -15 -21 -20 -16
-11 5 8 -6 -1 -25 -21 -19 -19 -27 -26 -19 -15 24 32 -80 -57 -135 -116 -46
-49 -44 -48 21 12 40 37 32 27 -20 -24 -50 -49 -90 -94 -88 -101 1 -7 -6 -19
-15 -26 -16 -13 -17 -12 -4 4 7 9 11 17 8 17 -3 0 -16 -15 -28 -32 -19 -27
-19 -30 -4 -18 13 10 10 2 -10 -27 -15 -24 -30 -43 -32 -43 -2 0 -1 5 2 10 3
6 4 10 1 10 -3 0 -10 -10 -17 -21 -8 -16 -8 -20 1 -14 9 6 9 2 1 -14 -7 -11
-17 -21 -23 -21 -6 0 -9 -3 -5 -6 3 -3 -4 -15 -15 -26 -11 -11 -17 -26 -14
-34 3 -8 1 -14 -5 -14 -6 0 -8 -4 -5 -9 9 -14 -5 -42 -17 -34 -6 4 -8 0 -4
-10 3 -10 2 -17 -3 -17 -5 0 -6 -7 -3 -17 5 -11 3 -14 -6 -8 -10 6 -11 2 -6
-15 5 -16 4 -20 -5 -15 -9 5 -10 1 -5 -15 5 -16 4 -20 -5 -15 -9 5 -10 1 -5
-15 5 -16 4 -20 -5 -15 -9 5 -10 1 -5 -15 5 -17 4 -20 -5 -15 -10 6 -11 1 -6
-19 4 -15 2 -26 -4 -26 -6 0 -8 -11 -4 -26 5 -20 4 -25 -6 -19 -9 6 -10 0 -5
-24 4 -20 3 -31 -5 -31 -8 0 -9 -14 -4 -46 4 -30 3 -45 -3 -41 -6 4 -10 -41
-10 -123 0 -82 4 -127 10 -123 6 4 7 -11 3 -42 -6 -35 -5 -45 4 -40 9 6 10 -1
5 -24 -4 -21 -3 -31 5 -31 8 0 10 -9 6 -26 -5 -18 -3 -24 5 -18 9 5 10 -1 5
-20 -5 -19 -3 -26 4 -21 7 5 9 -2 4 -21 -5 -20 -4 -25 6 -19 9 5 10 2 5 -15
-5 -16 -4 -20 5 -15 9 5 10 1 5 -15 -5 -17 -4 -21 6 -15 9 6 11 3 6 -8 -8 -22
2 -49 16 -40 6 4 8 0 4 -10 -7 -20 2 -49 13 -42 11 7 22 -24 13 -37 -4 -7 -1
-8 7 -3 10 6 12 4 7 -9 -4 -9 -3 -15 2 -12 4 3 13 -6 20 -20 6 -14 7 -23 1
-19 -6 3 -7 -1 -4 -10 4 -8 15 -20 26 -26 11 -6 17 -17 14 -24 -3 -8 0 -17 6
-21 7 -4 8 -3 4 4 -4 7 -5 12 -2 12 3 0 10 -10 17 -21 9 -17 8 -20 -3 -14 -7
4 -2 -3 12 -16 14 -13 19 -19 10 -14 -25 16 6 -22 60 -75 25 -25 33 -34 16
-20 -17 14 25 -30 93 -98 69 -69 127 -119 133 -116 6 4 22 -6 36 -22 13 -16
21 -22 17 -14 -4 8 3 4 15 -10 12 -14 19 -19 15 -12 -6 11 -3 12 14 3 11 -7
21 -14 21 -17 0 -3 -4 -2 -10 1 -5 3 -10 4 -10 1 0 -3 10 -10 21 -17 16 -8 20
-8 14 1 -6 9 -2 9 14 1 11 -7 21 -16 21 -22 0 -6 5 -7 10 -4 6 3 10 1 10 -5 0
-6 5 -8 10 -5 6 3 10 1 10 -5 0 -6 5 -8 10 -5 6 3 10 1 10 -5 0 -6 4 -9 9 -5
14 8 61 -16 54 -28 -3 -5 3 -6 17 -2 14 4 20 3 16 -3 -8 -13 19 -23 41 -15 11
5 14 3 8 -6 -6 -10 -2 -11 15 -6 16 5 20 4 15 -4 -5 -8 1 -10 21 -5 20 5 25 4
19 -6 -5 -9 -2 -10 14 -5 13 4 21 2 21 -5 0 -6 10 -8 26 -4 20 5 25 4 20 -5
-6 -8 0 -10 18 -5 17 4 26 2 26 -5 0 -8 12 -10 36 -5 27 5 35 4 30 -5 -6 -9 5
-10 43 -5 35 4 51 3 51 -5 0 -7 30 -11 90 -11 60 0 90 4 90 11 0 8 16 9 51 5
38 -5 49 -4 43 5 -5 9 3 10 30 5 24 -5 36 -3 36 5 0 7 9 9 25 5 15 -4 25 -2
25 4 0 6 11 8 26 4 20 -5 25 -4 19 6 -5 9 -2 10 15 5 17 -5 20 -4 15 5 -6 10
-1 11 19 6 20 -5 26 -3 21 5 -5 8 -1 9 15 4 16 -5 20 -4 15 5 -5 9 -1 10 15 5
14 -4 20 -3 16 3 -8 13 19 23 41 15 10 -4 14 -2 10 4 -8 13 38 34 58 27 8 -4
17 1 21 10 3 9 10 13 15 10 5 -3 9 0 9 6 0 6 5 8 10 5 6 -3 10 -2 10 4 0 6 10
15 21 22 15 8 19 8 15 0 -13 -21 5 -11 31 17 15 15 23 20 19 12 -4 -8 2 -4 14
10 12 14 19 18 15 10 -4 -8 2 -4 14 10 11 14 27 25 36 25 8 0 32 18 53 41 20
22 30 31 22 19 -8 -11 5 1 30 27 25 27 68 70 96 96 27 26 38 38 24 27 -14 -11
-5 0 20 25 25 25 53 54 61 65 13 19 13 19 -5 5 -19 -15 -19 -14 -2 13 17 25
35 40 20 15 -4 -7 -3 -8 4 -4 6 4 9 13 6 20 -3 8 0 17 7 22 8 5 10 3 4 -6 -5
-8 -4 -11 3 -6 6 4 9 13 6 21 -4 8 1 18 10 21 9 4 21 15 27 26 8 15 8 19 0 14
-8 -5 -8 0 0 18 7 14 16 23 20 20 5 -3 6 3 2 12 -5 13 -3 15 7 9 8 -5 11 -4 7
3 -9 13 2 44 13 37 11 -7 20 22 13 42 -4 10 -2 14 4 10 14 -9 24 18 16 40 -5
11 -3 14 6 8 10 -6 11 -2 6 15 -5 16 -4 20 5 15 9 -5 10 -1 5 15 -5 17 -4 20
5 15 10 -6 11 -1 6 19 -5 19 -3 26 4 21 7 -5 9 2 4 21 -5 21 -4 25 6 19 10 -6
11 -2 6 19 -4 16 -2 26 5 26 7 0 8 11 4 31 -5 23 -4 30 5 24 9 -5 10 5 5 39
-4 27 -3 46 2 46 5 0 10 54 10 125 0 80 -3 122 -10 118 -6 -4 -7 11 -3 41 5
32 4 46 -4 46 -8 0 -9 11 -5 31 5 24 4 30 -5 24 -10 -6 -11 -1 -6 19 4 16 2
26 -4 26 -7 0 -9 8 -5 20 4 12 2 20 -5 20 -7 0 -9 8 -5 21 5 16 4 19 -5 14 -9
-5 -10 -1 -5 15 5 16 4 20 -5 15 -9 -5 -10 -1 -5 15 5 16 4 20 -5 15 -9 -5
-10 -1 -5 15 5 17 4 21 -6 15 -9 -6 -11 -3 -6 8 7 20 -2 49 -13 42 -10 -6 -22
24 -14 36 3 5 0 9 -6 9 -6 0 -8 4 -5 10 7 12 -22 70 -35 70 -5 0 -14 10 -21
21 -8 16 -8 20 1 14 9 -6 9 -2 1 14 -7 11 -14 21 -17 21 -3 0 -2 -4 1 -10 3
-5 4 -10 2 -10 -2 0 -17 19 -32 43 -21 30 -23 38 -9 27 46 -36 -48 72 -160
182 -66 66 -114 112 -106 101 8 -10 0 -3 -19 16 -19 20 -30 29 -25 21 5 -9 -2
-4 -16 11 -32 34 -88 71 -75 49 4 -8 -3 -3 -18 13 -26 27 -44 37 -32 16 4 -6
-11 -1 -34 10 -23 12 -41 26 -41 32 0 6 -4 8 -9 5 -13 -8 -42 4 -35 15 3 5 -1
10 -8 10 -7 1 -20 3 -28 4 -8 1 -21 3 -28 4 -7 0 -10 6 -6 12 4 8 -1 9 -16 4
-16 -5 -20 -4 -15 5 5 9 1 10 -15 5 -16 -5 -20 -4 -15 5 5 9 1 10 -15 5 -17
-5 -20 -4 -15 5 6 10 1 11 -19 6 -19 -5 -26 -3 -21 4 5 7 -2 9 -21 4 -21 -5
-25 -4 -19 6 6 10 2 11 -19 6 -20 -5 -26 -4 -20 5 5 9 -3 10 -31 5 -27 -5 -35
-4 -30 4 6 9 -3 10 -34 5 -22 -4 -41 -3 -41 2 0 4 -63 8 -140 8 -77 0 -140 -4
-140 -8z m-900 -480 c0 -2 -10 -12 -22 -23 l-23 -19 19 23 c18 21 26 27 26 19z
m2105 -17 c10 -11 16 -20 13 -20 -3 0 -13 9 -23 20 -10 11 -16 20 -13 20 3 0
13 -9 23 -20z m36 -47 c13 -16 12 -17 -3 -4 -10 7 -18 15 -18 17 0 8 8 3 21
-13z m-2180 -1620 c13 -16 12 -17 -3 -4 -10 7 -18 15 -18 17 0 8 8 3 21 -13z
m2179 13 c0 -2 -8 -10 -17 -17 -16 -13 -17 -12 -4 4 13 16 21 21 21 13z
m-1980 -221 c13 -14 21 -25 18 -25 -2 0 -15 11 -28 25 -13 14 -21 25 -18 25 2
0 15 -11 28 -25z m51 -42 c13 -16 12 -17 -3 -4 -10 7 -18 15 -18 17 0 8 8 3
21 -13z m1679 13 c0 -2 -8 -10 -17 -17 -16 -13 -17 -12 -4 4 13 16 21 21 21
13z"/>
<path d="M6360 7445 c13 -14 26 -25 28 -25 3 0 -5 11 -18 25 -13 14 -26 25
-28 25 -3 0 5 -11 18 -25z"/>
<path d="M6405 7390 c10 -11 20 -20 23 -20 3 0 -3 9 -13 20 -10 11 -20 20 -23
20 -3 0 3 -9 13 -20z"/>
<path d="M5865 7190 c38 -38 72 -70 74 -70 3 0 -26 32 -64 70 -38 39 -72 70
-74 70 -3 0 26 -31 64 -70z"/>
<path d="M3920 5275 c19 -19 36 -35 39 -35 3 0 -10 16 -29 35 -19 19 -36 35
-39 35 -3 0 10 -16 29 -35z"/>
<path d="M5864 5268 l-29 -33 33 29 c30 28 37 36 29 36 -2 0 -16 -15 -33 -32z"/>
<path d="M3360 5106 c0 -2 8 -10 18 -17 15 -13 16 -12 3 4 -13 16 -21 21 -21
13z"/>
<path d="M3460 4985 c19 -19 36 -35 39 -35 3 0 -10 16 -29 35 -19 19 -36 35
-39 35 -3 0 10 -16 29 -35z"/>
<path d="M6159 4813 l-34 -38 38 34 c34 33 42 41 34 41 -2 0 -19 -17 -38 -37z"/>
<path d="M6094 4758 l-19 -23 23 19 c12 11 22 21 22 23 0 8 -8 2 -26 -19z"/>
<path d="M3730 4736 c0 -2 8 -10 18 -17 15 -13 16 -12 3 4 -13 16 -21 21 -21
13z"/>
<path d="M6049 4723 c-13 -16 -12 -17 4 -4 16 13 21 21 13 21 -2 0 -10 -8 -17
-17z"/>
<path d="M3164 4258 l-19 -23 23 19 c12 11 22 21 22 23 0 8 -8 2 -26 -19z"/>
<path d="M6625 4260 c10 -11 20 -20 23 -20 3 0 -3 9 -13 20 -10 11 -20 20 -23
20 -3 0 3 -9 13 -20z"/>
<path d="M2824 3928 l-29 -33 33 29 c30 28 37 36 29 36 -2 0 -16 -15 -33 -32z"/>
<path d="M2729 3813 c-13 -16 -12 -17 4 -4 16 13 21 21 13 21 -2 0 -10 -8 -17
-17z"/>
<path d="M2699 3773 c-13 -16 -12 -17 4 -4 16 13 21 21 13 21 -2 0 -10 -8 -17
-17z"/>
<path d="M6380 3767 c0 -1 35 -36 78 -77 l77 -75 -75 78 c-69 71 -80 82 -80
74z"/>
<path d="M3219 3563 l-24 -28 28 24 c25 23 32 31 24 31 -2 0 -14 -12 -28 -27z"/>
<path d="M6453 1731 c-40 -25 -53 -49 -53 -101 0 -34 6 -48 34 -76 29 -29 41
-34 79 -34 51 0 88 24 107 69 41 99 -77 199 -167 142z"/>
<path d="M6460 1453 c-28 -10 -70 -56 -81 -90 -46 -140 133 -241 236 -133 39
40 46 119 15 168 -31 49 -113 76 -170 55z"/>
<path d="M6971 1733 c-50 -26 -74 -64 -78 -125 -7 -93 46 -159 128 -160 88 -2
139 49 139 139 0 116 -100 193 -189 146z"/>
<path d="M2545 1547 c-59 -28 -94 -93 -95 -177 0 -68 16 -112 55 -150 32 -31
42 -35 90 -35 38 0 61 6 81 21 55 41 67 68 71 156 5 93 -10 136 -58 171 -34
25 -105 31 -144 14z"/>
<path d="M3103 1544 c-33 -16 -64 -58 -78 -101 l-6 -23 136 0 137 0 -7 33
c-18 90 -100 131 -182 91z"/>
</g>
</svg>
